<?xml version="1.0" standalone="no"?><!DOCTYPE svg PUBLIC "-//W3C//DTD SVG 1.1//EN" "http://www.w3.org/Graphics/SVG/1.1/DTD/svg11.dtd"><svg t="1608878279935" class="icon" viewBox="0 0 1024 1024" version="1.1" xmlns="http://www.w3.org/2000/svg" p-id="3411" xmlns:xlink="http://www.w3.org/1999/xlink" width="200" height="200"><defs><style type="text/css"></style></defs><path d="M913.6 0H110.4c-60.8 0-110.4 49.4-110.4 110.4v642.6c0 60.8 49.6 110.4 110.4 110.4h168.6l-109.4 109.4c-11.8 11.8-11.8 30.8 0 42.4 5.8 5.8 13.6 8.8 21.2 8.8s15.4-3 21.2-8.8l151.8-151.8h296.4l151.8 151.8c5.8 5.8 13.6 8.8 21.2 8.8s15.4-3 21.2-8.8c11.8-11.8 11.8-30.8 0-42.4l-109.4-109.4h168.6c60.8 0 110.4-49.6 110.4-110.4v-642.6c0-61-49.4-110.4-110.4-110.4zM964 753c0 27.8-22.6 50.4-50.4 50.4H110.4c-27.8 0-50.4-22.6-50.4-50.4v-642.6c0-27.8 22.6-50.4 50.4-50.4h803.4c27.8 0 50.4 22.6 50.4 50.4v642.6z" fill="#1C3175" p-id="3412"></path><path d="M719.8 405.6L398.4 220.2c-9.2-5.4-20.8-5.4-30 0s-15 15.2-15 26v371c0 10.8 5.8 20.6 15 26 4.6 2.6 9.8 4 15 4s10.4-1.4 15-4l321.4-185.6c9.2-5.4 15-15.2 15-26s-5.8-20.6-15-26z m-306.4 159.6V298.2l231.4 133.6-231.4 133.4z" fill="#E30413" p-id="3413"></path></svg>