<?xml version="1.0" encoding="UTF-8"?>
<svg width="30px" height="30px" viewBox="0 0 30 30" version="1.1" xmlns="http://www.w3.org/2000/svg" xmlns:xlink="http://www.w3.org/1999/xlink">
    <title>1</title>
    <g id="1" stroke="none" stroke-width="1" fill="none" fill-rule="evenodd">
        <g id="编组" transform="translate(4.550738, 5.000000)" fill="#5E6666">
            <path d="M10,-2 L11,-2 C11.5522847,-2 12,-1.55228475 12,-1 L12,21 C12,21.5522847 11.5522847,22 11,22 L10,22 C9.44771525,22 9,21.5522847 9,21 L9,-1 C9,-1.55228475 9.44771525,-2 10,-2 Z" id="路径" transform="translate(10.500000, 10.000000) rotate(-45.000000) translate(-10.500000, -10.000000) "></path>
            <path d="M10,-2 L11,-2 C11.5522847,-2 12,-1.55228475 12,-1 L12,21 C12,21.5522847 11.5522847,22 11,22 L10,22 C9.44771525,22 9,21.5522847 9,21 L9,-1 C9,-1.55228475 9.44771525,-2 10,-2 Z" id="路径" transform="translate(10.500000, 10.000000) rotate(45.000000) translate(-10.500000, -10.000000) "></path>
        </g>
    </g>
</svg>