<?xml version="1.0" encoding="UTF-8"?>
<svg width="24px" height="24px" viewBox="0 0 24 24" version="1.1" xmlns="http://www.w3.org/2000/svg" xmlns:xlink="http://www.w3.org/1999/xlink">
    <title>vote</title>
    <defs>
        <polygon id="path-1" points="0 0.0776 21 0.0776 21 1.9224 0 1.9224"></polygon>
    </defs>
    <g id="vote" stroke="none" stroke-width="1" fill="none" fill-rule="evenodd">
        <g id="编组" transform="translate(2.000000, 3.000000)">
            <g transform="translate(0.000000, 16.000000)">
                <mask id="mask-2" fill="white">
                    <use xlink:href="#path-1"></use>
                </mask>
                <g id="Clip-2"></g>
                <path d="M21,1 C21,0.534 20.7773748,0.154 20.5034872,0.154 L0.496512763,0.154 C0.222625192,0.154 0,0.532 0,1 C0,1.466 0.221160552,1.846 0.496512763,1.846 L20.5034872,1.846 C20.7773748,1.846 21,1.466 21,1" id="Fill-1" fill="#2A9963" mask="url(#mask-2)"></path>
            </g>
            <path d="M11.860939,7.58789048 L8.5922294,10.5376679 C8.34682576,10.7592681 7.94115853,10.7622032 7.68907724,10.5450056 L6.27007663,9.31226285 C6.04470595,9.11561102 6.04303654,8.79421736 6.26673781,8.59609798 C6.49043908,8.40091371 6.854371,8.40091371 7.07807227,8.59609798 L7.94783618,9.36215958 L10.9077045,6.76165929 C11.1714717,6.52831869 11.6005107,6.53125379 11.860939,6.76606195 C12.1130203,6.9949999 12.1130203,7.35895253 11.860939,7.58789048 M17.9495772,13.0989337 L12.6293188,0.402090324 C12.6150723,0.364996686 12.5849965,0.337176457 12.5628353,0.304719523 C12.5390912,0.267625885 12.5216789,0.230532246 12.493186,0.199620881 C12.4567784,0.16407281 12.414039,0.140889286 12.3697167,0.114614625 C12.3412238,0.0960678061 12.3174797,0.0713387138 12.285821,0.0574285993 C12.2351669,0.0373362117 12.179764,0.0280628021 12.1259441,0.0187893924 C12.0958683,0.0141526876 12.0689583,0.00178814142 12.0372995,0.000110994783 C11.9866455,-0.00130299513 11.9359914,0.0110615511 11.8853374,0.021880529 C11.8505127,0.0280628021 11.817271,0.0249716655 11.7840293,0.0357906435 L1.48701011,3.64623813 C1.17833698,3.75597348 0.913986144,4.20727942 1.02637482,4.52412091 C1.06119948,4.63849296 1.073863,4.67867774 1.07702888,4.69413342 C1.07861181,4.69722456 1.07861181,4.69258785 1.08336063,4.7095891 L4.52941915,14 L5.15942893,14 L16.7117188,14 L17.330648,14 L17.5839183,14 C17.9258331,13.8624444 18.0904588,13.4327764 17.9495772,13.0989337" id="Fill-3" fill="#2A9963"></path>
            <path d="M2.99900694,8.99412245 C2.99300694,8.97812245 3.00900694,9.03412245 2.99900694,8.99412245" id="Fill-5" fill="#000000"></path>
        </g>
    </g>
</svg>